<svg width="276" height="144" viewBox="0 0 276 144" fill="none" xmlns="http://www.w3.org/2000/svg">
<g clip-path="url(#clip0_221_2179)">
<path d="M66.4207 141.555L59.6218 130.7L66.4238 142.737L66.4275 143.974C66.9125 143.969 67.3926 143.95 67.8679 143.918L67.3133 128.03L67.3206 127.907L67.3081 127.884L67.2553 126.382L74.3641 114.486L67.248 125.258L67.2267 125.576L66.8078 113.572L72.9191 101.263L66.76 111.462L66.4735 86.581L66.4722 86.4982L66.4713 86.5797L66.3318 106.197L60.4921 98.3478L66.3369 107.887L66.364 118.631L60.9457 108.254L66.367 120.211L66.382 126.185L58.5114 111.737L66.3882 128.27L66.4207 141.555Z" fill="#E2E2E2"/>
<path d="M124.763 141.555L117.965 130.7L124.767 142.737L124.77 143.974C125.255 143.969 125.735 143.95 126.211 143.918L125.656 128.03L125.663 127.907L125.651 127.884L125.598 126.382L132.707 114.486L125.591 125.258L125.57 125.576L125.151 113.572L131.262 101.263L125.103 111.462L124.816 86.581L124.815 86.4982L124.814 86.5797L124.675 106.197L118.835 98.3478L124.68 107.887L124.707 118.631L119.288 108.254L124.71 120.211L124.725 126.185L116.854 111.737L124.731 128.27L124.763 141.555Z" fill="#E2E2E2"/>
<path d="M8.02243 142.253L3.11305 134.415L8.02471 143.107L8.02734 144C8.37758 143.996 8.72429 143.982 9.06746 143.959L8.66703 132.487L8.6723 132.398L8.66328 132.381L8.62516 131.297L13.7583 122.706L8.61986 130.485L8.60448 130.715L8.302 122.046L12.7149 113.159L8.26751 120.523L8.06064 102.557L8.05969 102.497L8.05898 102.556L7.95825 116.721L3.74148 111.053L7.96198 117.941L7.98156 125.7L4.06901 118.207L7.98372 126.84L7.99455 131.155L2.31119 120.721L7.99901 132.66L8.02243 142.253Z" fill="#E2E2E2"/>
<path d="M266.659 141.555L259.86 130.7L266.662 142.737L266.665 143.974C267.15 143.969 267.631 143.95 268.106 143.918L267.551 128.03L267.559 127.907L267.546 127.884L267.493 126.382L274.602 114.486L267.486 125.258L267.465 125.576L267.046 113.572L273.157 101.263L266.998 111.462L266.712 86.581L266.71 86.4982L266.709 86.5797L266.57 106.197L260.73 98.3478L266.575 107.887L266.602 118.631L261.184 108.254L266.605 120.211L266.62 126.185L258.749 111.737L266.626 128.27L266.659 141.555Z" fill="#E2E2E2"/>
<path d="M82.276 125.167H118.952V123.603H82.276V125.167Z" fill="#6C63FF"/>
<path d="M80.4111 123.603H117.087V122.04H80.4111V123.603Z" fill="#6C63FF"/>
<path d="M82.5868 122.04H119.262V120.477H82.5868V122.04Z" fill="#6C63FF"/>
<path d="M86.3165 120.477H122.992V118.913H86.3165V120.477Z" fill="#6C63FF"/>
<path d="M55.1108 121.1H56.3842V112.004H55.1108V121.1Z" fill="#3F3D56"/>
<path d="M55.1081 111.889L55.5871 113.076L102.709 93.8345L102.23 92.6474L55.1081 111.889Z" fill="#3F3D56"/>
<path d="M31.5532 134.679H42.6317V130.323H31.5532V134.679Z" fill="#3F3D56"/>
<path d="M32.5719 139.035H87.2V134.167H32.5719V139.035Z" fill="#3F3D56"/>
<path d="M41.5492 136.601H54.6651V120.011H44.86L41.5492 128.378V136.601Z" fill="#E2E2E2"/>
<path d="M47.0248 126.672H52.6277V121.036H47.0248V126.672Z" fill="white"/>
<path d="M42.8226 126.736H46.3882V121.1H44.8599L42.8226 126.736Z" fill="white"/>
<path d="M51.0996 132.309H52.373V129.875H51.0996V132.309Z" fill="#3F3D56"/>
<path d="M45.3058 127.121H45.2421C44.9213 127.121 44.6136 126.993 44.3867 126.764C44.1598 126.536 44.0324 126.227 44.0324 125.904C44.0324 125.581 44.1598 125.271 44.3867 125.043C44.6136 124.815 44.9213 124.687 45.2421 124.687H45.3058V127.121Z" fill="#3F3D56"/>
<path d="M92.6756 136.601H92.6119C92.2911 136.601 91.9834 136.472 91.7565 136.244C91.5296 136.016 91.4022 135.706 91.4022 135.384C91.4022 135.061 91.5296 134.751 91.7565 134.523C91.9834 134.295 92.2911 134.167 92.6119 134.167H92.6756V136.601Z" fill="#3F3D56"/>
<path d="M36.4557 134.148C35.5087 134.16 34.5767 134.387 33.7289 134.812C32.881 135.236 32.1393 135.848 31.5587 136.601H29.0701L31.4895 129.82L42.759 127.584L42.4406 136.601H41.3527C40.7722 135.848 40.0304 135.236 39.1826 134.812C38.3348 134.387 37.4027 134.16 36.4557 134.148Z" fill="#E2E2E2"/>
<path d="M36.3284 143.775C39.3876 143.775 41.8676 141.28 41.8676 138.202C41.8676 135.124 39.3876 132.629 36.3284 132.629C33.2692 132.629 30.7892 135.124 30.7892 138.202C30.7892 141.28 33.2692 143.775 36.3284 143.775Z" fill="#3F3D56"/>
<path d="M36.3284 141.135C37.9385 141.135 39.2438 139.822 39.2438 138.202C39.2438 136.582 37.9385 135.269 36.3284 135.269C34.7183 135.269 33.413 136.582 33.413 138.202C33.413 139.822 34.7183 141.135 36.3284 141.135Z" fill="#E2E2E2"/>
<path d="M86.3723 143.711C89.0448 143.711 91.2112 141.531 91.2112 138.843C91.2112 136.154 89.0448 133.974 86.3723 133.974C83.6999 133.974 81.5335 136.154 81.5335 138.843C81.5335 141.531 83.6999 143.711 86.3723 143.711Z" fill="#3F3D56"/>
<path d="M86.3723 141.405C87.7789 141.405 88.9191 140.258 88.9191 138.843C88.9191 137.428 87.7789 136.28 86.3723 136.28C84.9658 136.28 83.8256 137.428 83.8256 138.843C83.8256 140.258 84.9658 141.405 86.3723 141.405Z" fill="#E2E2E2"/>
<path d="M54.2831 137.113H56.9572V117.705H54.2831V137.113Z" fill="#3F3D56"/>
<path d="M54.2831 134.743H92.7393V133.59H54.2831V134.743Z" fill="#3F3D56"/>
<path d="M44.5417 127.505H45.8151V126.993H44.5417V127.505Z" fill="#3F3D56"/>
<path d="M100.825 125.157C100.813 125.144 100.804 125.128 100.798 125.111C100.793 125.094 100.791 125.076 100.793 125.058L102.549 108.35C102.552 108.319 102.567 108.29 102.59 108.269C102.614 108.247 102.644 108.236 102.675 108.236H102.676C102.707 108.236 102.737 108.247 102.76 108.268C102.784 108.289 102.799 108.318 102.802 108.349L104.702 125.022C104.704 125.04 104.702 125.058 104.697 125.075C104.691 125.092 104.682 125.108 104.67 125.121C104.659 125.135 104.644 125.146 104.628 125.153C104.612 125.16 104.594 125.164 104.576 125.165L100.921 125.199H100.919C100.902 125.199 100.884 125.195 100.868 125.188C100.852 125.181 100.837 125.17 100.825 125.157ZM102.681 109.533L101.061 124.942L104.432 124.91L102.681 109.533Z" fill="#3F3D56"/>
<path d="M31.513 129.919L31.5725 129.942C31.8726 130.056 32.1153 130.286 32.2473 130.58C32.3792 130.874 32.3896 131.209 32.2761 131.511C32.1626 131.813 31.9345 132.057 31.6421 132.19C31.3496 132.322 31.0167 132.333 30.7166 132.219L30.6571 132.196L31.513 129.919Z" fill="#3F3D56"/>
<path d="M102.099 111.364H103.372V92.6601H102.099V111.364Z" fill="#3F3D56"/>
<path d="M55.7475 114.054C56.7321 114.054 57.5302 113.251 57.5302 112.26C57.5302 111.27 56.7321 110.467 55.7475 110.467C54.7629 110.467 53.9648 111.27 53.9648 112.26C53.9648 113.251 54.7629 114.054 55.7475 114.054Z" fill="#3F3D56"/>
<path d="M58.3435 133.609H95.0192V132.046H58.3435V133.609Z" fill="#6C63FF"/>
<path d="M60.5192 132.046H97.1949V130.482H60.5192V132.046Z" fill="#6C63FF"/>
<path d="M58.9652 130.795H95.6408V129.232H58.9652V130.795Z" fill="#6C63FF"/>
<path d="M61.1408 129.232H97.8165V127.668H61.1408V129.232Z" fill="#6C63FF"/>
<path d="M118.835 38.2235C120.003 38.2221 121.133 38.6457 122.016 39.4161C122.714 39.2244 123.445 39.1921 124.157 39.3215C124.746 38.4614 125.593 37.8133 126.574 37.472C127.556 37.1307 128.62 37.114 129.611 37.4244C130.602 37.7349 131.469 38.3561 132.085 39.1973C132.7 40.0386 133.032 41.0558 133.032 42.1003H114.073C114.306 41.0034 114.905 40.0199 115.772 39.3143C116.639 38.6087 117.72 38.2236 118.835 38.2235Z" fill="#E2E2E2"/>
<path d="M90.3128 53.6539C91.4178 53.6526 92.486 54.0531 93.3207 54.7814C93.9802 54.6002 94.6717 54.5697 95.3444 54.692C95.9014 53.8788 96.7023 53.2661 97.63 52.9435C98.5577 52.6208 99.5637 52.6051 100.501 52.8985C101.438 53.192 102.258 53.7793 102.839 54.5746C103.421 55.3699 103.735 56.3316 103.735 57.3191H85.8116C86.0314 56.282 86.5983 55.3523 87.4175 54.6852C88.2368 54.0181 89.2588 53.6541 90.3128 53.6539Z" fill="#E2E2E2"/>
<path d="M61.7967 28.2037C62.9464 28.2024 64.0578 28.619 64.9264 29.3769C65.6126 29.1883 66.332 29.1565 67.032 29.2838C67.6115 28.4377 68.4447 27.8003 69.41 27.4646C70.3752 27.1288 71.4219 27.1125 72.3971 27.4178C73.3723 27.7231 74.2248 28.3342 74.8302 29.1617C75.4356 29.9892 75.7621 30.9897 75.7621 32.0172H57.1134C57.3421 30.9382 57.9319 29.9708 58.7843 29.2767C59.6367 28.5826 60.7001 28.2039 61.7967 28.2037Z" fill="#E2E2E2"/>
<path d="M184.932 76.6661V115.722H200.029V76.1237L196.525 76.2496V68.2582H193.983L193.564 50.5589C194.59 49.8865 195.312 48.2894 195.312 46.4246C195.313 45.8892 195.251 45.3556 195.127 44.8349C195.613 44.3064 195.91 43.6309 195.973 42.9142C196.036 42.1974 195.861 41.4798 195.475 40.8739C195.798 41.1575 196.173 41.3738 196.579 41.5102C196.986 41.6467 197.415 41.7006 197.842 41.6688C198.269 41.637 198.686 41.5202 199.068 41.3251C199.45 41.13 199.79 40.8605 200.067 40.5323C200.345 40.2041 200.555 39.8236 200.685 39.4131C200.816 39.0025 200.863 38.57 200.826 38.1407C200.789 37.7113 200.667 37.2937 200.468 36.9121C200.269 36.5304 199.997 36.1923 199.667 35.9174C200.222 35.7114 200.71 35.3565 201.078 34.8912C201.446 34.4258 201.681 33.8678 201.756 33.2778C201.831 32.6878 201.745 32.0884 201.505 31.5446C201.265 31.0008 200.882 30.5334 200.397 30.1933C199.912 29.8532 199.344 29.6533 198.753 29.6153C198.163 29.5774 197.574 29.7028 197.05 29.9781C196.526 30.2533 196.087 30.6677 195.78 31.1764C195.474 31.6851 195.312 32.2685 195.312 32.8634C195.312 32.911 195.313 32.9583 195.315 33.0054C194.871 32.8689 194.403 32.8302 193.942 32.8918C193.482 32.9535 193.04 33.1141 192.647 33.3627C192.254 33.6114 191.918 33.9422 191.663 34.3328C191.408 34.7234 191.24 35.1647 191.17 35.6265C190.766 35.385 190.315 35.2348 189.848 35.1862C189.381 35.1376 188.909 35.1918 188.465 35.3451C188.021 35.4984 187.616 35.747 187.277 36.0738C186.938 36.4006 186.674 36.7977 186.503 37.2375C186.331 37.6773 186.258 38.1493 186.286 38.6208C186.314 39.0922 186.445 39.5517 186.667 39.9675C186.89 40.3833 187.2 40.7453 187.576 41.0285C187.951 41.3117 188.384 41.5092 188.843 41.6073C188.842 41.631 188.841 41.6544 188.841 41.6782C189.142 42.5904 189.524 43.4732 189.984 44.3156C189.759 44.9956 189.646 45.708 189.65 46.4246C189.65 48.2894 190.372 49.8865 191.398 50.5589L190.979 68.2581H188.437V76.5402L184.932 76.6661ZM194.36 39.3726L194.368 39.3727C194.415 39.3727 194.461 39.3712 194.507 39.3692C194.536 39.4654 194.57 39.5596 194.607 39.6518C194.53 39.554 194.447 39.4608 194.36 39.3726Z" fill="#E2E2E2"/>
<path d="M176.619 143.523H222.451V90.1821H176.619V143.523Z" fill="#3F3D56"/>
<path d="M193.357 143.523H205.714V132.674H193.357V143.523Z" fill="#E2E2E2"/>
<path d="M161.345 19.9978C161.344 20.0372 161.342 20.0762 161.342 20.1158C161.341 20.8412 161.486 21.5594 161.767 22.2275C162.048 22.8956 162.459 23.5001 162.977 24.0048C163.058 24.1784 163.148 24.3475 163.247 24.5115C162.872 25.6448 162.684 26.8322 162.69 28.0265C162.69 32.1458 164.802 35.4852 167.408 35.4852C170.014 35.4852 172.126 32.1458 172.126 28.0265C172.128 27.1342 172.025 26.2448 171.819 25.377C172.628 24.4962 173.124 23.3704 173.229 22.1758C173.334 20.9812 173.042 19.7853 172.399 18.7754C172.936 19.248 173.562 19.6084 174.239 19.8358C174.917 20.0632 175.632 20.153 176.344 20.1C177.056 20.0471 177.75 19.8523 178.387 19.5272C179.023 19.202 179.59 18.7528 180.052 18.2058C180.515 17.6588 180.865 17.0248 181.082 16.3405C181.299 15.6563 181.379 14.9355 181.317 14.22C181.255 13.5044 181.052 12.8084 180.721 12.1723C180.389 11.5362 179.935 10.9727 179.386 10.5145C180.31 10.1712 181.123 9.5797 181.737 8.80411C182.351 8.02853 182.742 7.09855 182.867 6.1152C182.993 5.13186 182.848 4.13275 182.448 3.22642C182.049 2.32008 181.41 1.54117 180.602 0.974306C179.793 0.407439 178.846 0.0742919 177.863 0.0110506C176.879 -0.0521908 175.897 0.156894 175.024 0.615592C174.15 1.07429 173.418 1.76506 172.907 2.61286C172.396 3.46067 172.126 4.43309 172.126 5.42449C172.126 5.50391 172.129 5.58271 172.132 5.66128C171.392 5.43377 170.611 5.36919 169.844 5.47193C169.077 5.57468 168.34 5.84233 167.685 6.25673C167.029 6.67113 166.47 7.22256 166.046 7.87359C165.621 8.52462 165.34 9.25999 165.223 10.0298C164.55 9.62729 163.799 9.37684 163.021 9.29582C162.242 9.21481 161.456 9.30517 160.716 9.56063C159.976 9.8161 159.3 10.2305 158.735 10.7752C158.17 11.3199 157.73 11.9817 157.444 12.7147C157.159 13.4477 157.036 14.2344 157.083 15.0201C157.131 15.8059 157.348 16.5718 157.719 17.2648C158.09 17.9577 158.607 18.5611 159.233 19.0331C159.859 19.505 160.58 19.8342 161.345 19.9978ZM170.553 16.2735C170.631 16.2735 170.708 16.2709 170.785 16.2676C170.834 16.4279 170.889 16.5849 170.952 16.7385C170.823 16.5755 170.686 16.4202 170.54 16.2731L170.553 16.2735Z" fill="#E2E2E2"/>
<path d="M164.711 72.5526H170.104L169.911 64.4165V64.4133L169.206 34.58C168.664 34.9128 168.042 35.0889 167.408 35.0889C166.773 35.0889 166.151 34.9128 165.61 34.58L164.904 64.4133V64.4165L164.711 72.5526Z" fill="#6C63FF"/>
<path d="M154.828 78.428V143.523H179.988V77.5243L174.148 77.7338V64.4165H160.668V78.2185L154.828 78.428Z" fill="#6C63FF"/>
<path d="M225.599 19.9978C225.598 20.0372 225.596 20.0762 225.596 20.1158C225.596 20.8412 225.74 21.5594 226.021 22.2275C226.302 22.8956 226.713 23.5001 227.231 24.0048C227.312 24.1784 227.402 24.3475 227.501 24.5115C227.126 25.6448 226.938 26.8322 226.944 28.0265C226.944 32.1458 229.057 35.4852 231.662 35.4852C234.268 35.4852 236.38 32.1458 236.38 28.0265C236.382 27.1342 236.279 26.2448 236.073 25.377C236.882 24.4962 237.378 23.3704 237.483 22.1758C237.588 20.9812 237.296 19.7853 236.653 18.7754C237.191 19.248 237.816 19.6084 238.493 19.8359C239.171 20.0633 239.886 20.1531 240.598 20.1001C241.31 20.0471 242.004 19.8524 242.641 19.5272C243.278 19.202 243.844 18.7529 244.306 18.2059C244.769 17.6588 245.119 17.0248 245.336 16.3405C245.553 15.6563 245.633 14.9355 245.571 14.22C245.509 13.5044 245.306 12.8084 244.975 12.1723C244.643 11.5362 244.189 10.9727 243.64 10.5145C244.564 10.1712 245.378 9.5797 245.991 8.80411C246.605 8.02853 246.996 7.09855 247.121 6.11521C247.247 5.13186 247.102 4.13275 246.702 3.22642C246.303 2.32008 245.665 1.54117 244.856 0.974306C244.048 0.407439 243.1 0.074292 242.117 0.0110506C241.133 -0.0521908 240.151 0.156894 239.278 0.615592C238.404 1.07429 237.672 1.76506 237.161 2.61286C236.65 3.46067 236.38 4.43309 236.38 5.42449C236.38 5.50391 236.383 5.58271 236.386 5.66128C235.646 5.43377 234.866 5.36919 234.098 5.47193C233.331 5.57468 232.594 5.84233 231.939 6.25673C231.284 6.67113 230.724 7.22256 230.3 7.87359C229.875 8.52462 229.594 9.25999 229.477 10.0298C228.804 9.62729 228.053 9.37684 227.275 9.29582C226.496 9.21481 225.71 9.30517 224.97 9.56063C224.23 9.8161 223.554 10.2305 222.989 10.7752C222.424 11.3199 221.984 11.9817 221.699 12.7147C221.413 13.4477 221.29 14.2344 221.338 15.0201C221.385 15.8059 221.602 16.5718 221.973 17.2648C222.344 17.9577 222.861 18.5611 223.487 19.0331C224.113 19.505 224.834 19.8342 225.599 19.9978ZM234.808 16.2735C234.885 16.2735 234.963 16.2708 235.04 16.2676C235.088 16.4279 235.144 16.5849 235.206 16.7385C235.078 16.5755 234.94 16.4202 234.794 16.2731L234.808 16.2735Z" fill="#E2E2E2"/>
<path d="M228.966 72.5525H234.358L233.46 34.5811C232.298 35.0011 231.027 35.0011 229.865 34.5811L228.966 72.5525Z" fill="#6C63FF"/>
<path d="M219.082 78.428V143.523H244.245V77.5243L242.178 77.5994L238.402 77.7338V64.4165H224.922V78.2185L219.082 78.428Z" fill="#6C63FF"/>
<path d="M206.373 102.874H212.589V96.6201H206.373V102.874Z" fill="white"/>
<path d="M196.427 102.874H202.643V96.6201H196.427V102.874Z" fill="white"/>
<path d="M186.481 102.874H192.697V96.6201H186.481V102.874Z" fill="white"/>
<path d="M206.373 112.88H212.589V106.626H206.373V112.88Z" fill="white"/>
<path d="M196.427 112.88H202.643V106.626H196.427V112.88Z" fill="white"/>
<path d="M186.481 112.88H192.697V106.626H186.481V112.88Z" fill="white"/>
<path d="M206.373 122.886H212.589V116.632H206.373V122.886Z" fill="white"/>
<path d="M196.427 122.886H202.643V116.632H196.427V122.886Z" fill="white"/>
<path d="M186.481 122.886H192.697V116.632H186.481V122.886Z" fill="white"/>
<path d="M164.3 100.372H170.516V94.1185H164.3V100.372Z" fill="white"/>
<path d="M164.3 110.378H170.516V104.125H164.3V110.378Z" fill="white"/>
<path d="M164.3 120.384H170.516V114.13H164.3V120.384Z" fill="white"/>
<path d="M164.3 130.39H170.516V124.136H164.3V130.39Z" fill="white"/>
<path d="M228.502 100.372H234.719V94.1185H228.502V100.372Z" fill="white"/>
<path d="M228.502 110.378H234.719V104.125H228.502V110.378Z" fill="white"/>
<path d="M228.502 120.384H234.719V114.13H228.502V120.384Z" fill="white"/>
<path d="M228.502 130.39H234.719V124.136H228.502V130.39Z" fill="white"/>
<path d="M276 143.303H0V143.928H276V143.303Z" fill="#3F3D56"/>
</g>
<defs>
<clipPath id="clip0_221_2179">
<rect width="276" height="144" fill="white"/>
</clipPath>
</defs>
</svg>
