<svg width="22" height="17" viewBox="0 0 22 17" fill="none" xmlns="http://www.w3.org/2000/svg">
<path d="M2.75 4.25H4.58333H19.25" stroke="#492DB1" stroke-opacity="0.9" stroke-width="2" stroke-linecap="round" stroke-linejoin="round"/>
<path d="M2.75 4.25H4.58333H19.25" stroke="#E60D83" stroke-opacity="0.5" stroke-width="2" stroke-linecap="round" stroke-linejoin="round"/>
<path d="M17.4167 4.25002V14.1667C17.4167 14.5424 17.2236 14.9027 16.8797 15.1684C16.5359 15.4341 16.0696 15.5834 15.5834 15.5834H6.41671C5.93048 15.5834 5.46416 15.4341 5.12034 15.1684C4.77653 14.9027 4.58337 14.5424 4.58337 14.1667V4.25002M7.33337 4.25002V2.83335C7.33337 2.45763 7.52653 2.0973 7.87035 1.83162C8.21416 1.56594 8.68048 1.41669 9.16671 1.41669H12.8334C13.3196 1.41669 13.7859 1.56594 14.1297 1.83162C14.4736 2.0973 14.6667 2.45763 14.6667 2.83335V4.25002" stroke="#492DB1" stroke-opacity="0.9" stroke-width="2" stroke-linecap="round" stroke-linejoin="round"/>
<path d="M17.4167 4.25002V14.1667C17.4167 14.5424 17.2236 14.9027 16.8797 15.1684C16.5359 15.4341 16.0696 15.5834 15.5834 15.5834H6.41671C5.93048 15.5834 5.46416 15.4341 5.12034 15.1684C4.77653 14.9027 4.58337 14.5424 4.58337 14.1667V4.25002M7.33337 4.25002V2.83335C7.33337 2.45763 7.52653 2.0973 7.87035 1.83162C8.21416 1.56594 8.68048 1.41669 9.16671 1.41669H12.8334C13.3196 1.41669 13.7859 1.56594 14.1297 1.83162C14.4736 2.0973 14.6667 2.45763 14.6667 2.83335V4.25002" stroke="#E60D83" stroke-opacity="0.5" stroke-width="2" stroke-linecap="round" stroke-linejoin="round"/>
<path d="M9.16663 7.79169V12.0417" stroke="#492DB1" stroke-opacity="0.9" stroke-width="2" stroke-linecap="round" stroke-linejoin="round"/>
<path d="M9.16663 7.79169V12.0417" stroke="#E60D83" stroke-opacity="0.5" stroke-width="2" stroke-linecap="round" stroke-linejoin="round"/>
<path d="M12.8334 7.79169V12.0417" stroke="#492DB1" stroke-opacity="0.9" stroke-width="2" stroke-linecap="round" stroke-linejoin="round"/>
<path d="M12.8334 7.79169V12.0417" stroke="#E60D83" stroke-opacity="0.5" stroke-width="2" stroke-linecap="round" stroke-linejoin="round"/>
</svg>
