<svg width="23" height="21" viewBox="0 0 23 21" fill="none" xmlns="http://www.w3.org/2000/svg">
<g clip-path="url(#clip0_505_3277)">
<path d="M19.3572 13.0335C18.2779 12.2634 17.2143 11.8217 16.5057 11.5837C17.6452 10.3557 18.3443 8.70365 18.3449 6.88591C18.3442 3.09337 15.3099 0.0208021 11.5663 0.0198364C7.8236 0.020968 4.78966 3.09323 4.78871 6.88591C4.78926 8.6561 5.45117 10.2698 6.53781 11.4866C5.52696 11.744 4.2649 12.3396 3.08107 13.3733C1.45223 14.8027 0.0492752 17.1221 0.0540895 20.4557C0.0540895 20.5977 0.110879 20.7377 0.211054 20.838C0.310108 20.9383 0.447334 20.9958 0.588473 20.9958H22.5449C22.6856 20.9958 22.8227 20.9383 22.9223 20.838C23.0213 20.7365 23.0787 20.5977 23.0787 20.4557C23.0871 16.6798 21.2033 14.3394 19.3572 13.0334L19.3572 13.0335ZM11.5662 1.10172C14.7194 1.10738 17.2709 3.69119 17.2766 6.88582C17.2729 8.85951 16.2954 10.5978 14.8062 11.6411C14.7848 11.656 14.765 11.6723 14.7434 11.6868C14.45 11.8863 14.1372 12.0591 13.809 12.2016C13.7831 12.2128 13.7564 12.2222 13.7302 12.2333C13.5941 12.2899 13.4556 12.3414 13.314 12.388C13.2751 12.4006 13.2351 12.4123 13.1954 12.4246C13.0638 12.464 12.9299 12.4989 12.7942 12.5292C12.7501 12.5392 12.7061 12.5498 12.6612 12.5581C12.5238 12.5856 12.3842 12.6062 12.2434 12.6235C12.2015 12.6284 12.1598 12.6358 12.1174 12.64C11.9444 12.6569 11.7684 12.6664 11.5912 12.6675C11.583 12.6675 11.5744 12.6686 11.5659 12.6686C11.5562 12.6686 11.5474 12.6675 11.5377 12.6675C11.3616 12.6664 11.1873 12.6569 11.0153 12.64C10.9711 12.6356 10.9283 12.6283 10.8848 12.623C10.746 12.606 10.6084 12.5854 10.4729 12.5587C10.4262 12.5498 10.38 12.5387 10.3338 12.5287C10.2007 12.4987 10.0692 12.4649 9.93981 12.4257C9.89811 12.4131 9.85621 12.4002 9.81469 12.387C9.67597 12.3416 9.54005 12.2905 9.40655 12.2348C9.37825 12.2232 9.3492 12.2126 9.32108 12.2005C8.99357 12.0585 8.6815 11.8863 8.38898 11.6871C8.36701 11.6721 8.34671 11.6558 8.32492 11.6404C6.83646 10.5973 5.85988 8.85875 5.85616 6.88578C5.8623 3.6913 8.41301 1.10748 11.5661 1.10169L11.5662 1.10172ZM11.2492 19.9145H5.5993V17.6291C5.5993 17.3298 5.36004 17.0884 5.06549 17.0884C4.77074 17.0884 4.53239 17.3298 4.53239 17.6291V19.9145H1.136C1.27676 17.1938 2.43804 15.3819 3.78294 14.1879C5.18217 12.9369 6.85592 12.4171 7.55003 12.4139C7.8297 12.6229 8.12612 12.8094 8.43633 12.9737C8.44061 12.9758 8.44452 12.978 8.44881 12.9799C8.75175 13.1395 9.06808 13.2762 9.3956 13.3882C9.40863 13.3931 9.42204 13.3977 9.43507 13.402C9.59631 13.4563 9.76054 13.505 9.92679 13.5472C9.93238 13.5484 9.93852 13.5499 9.94448 13.551C10.1059 13.5915 10.2707 13.6253 10.4368 13.654C10.4502 13.656 10.4632 13.6589 10.4761 13.6608C10.6405 13.6877 10.8073 13.7083 10.9755 13.723C11.0012 13.7251 11.0265 13.7268 11.052 13.7287C11.2218 13.7419 11.3925 13.7503 11.5659 13.7503C11.7377 13.7503 11.9074 13.742 12.0757 13.7292C12.1021 13.7271 12.1282 13.7249 12.1546 13.723C12.3216 13.7081 12.4875 13.6881 12.651 13.6617C12.6625 13.6596 12.6743 13.6574 12.686 13.6555C12.8508 13.6274 13.0133 13.5936 13.1736 13.554C13.1814 13.5523 13.1896 13.5508 13.1975 13.5485C13.3637 13.5069 13.5268 13.4588 13.6881 13.405C13.6993 13.4012 13.7102 13.3971 13.7214 13.3933C14.0491 13.2819 14.3653 13.1463 14.6684 12.9878C14.6714 12.9861 14.6744 12.9846 14.6771 12.9829C14.9862 12.8207 15.2817 12.6361 15.5606 12.4294C15.6007 12.4394 15.6519 12.4526 15.7144 12.4699C16.338 12.6395 17.9428 13.1781 19.3551 14.398C20.6799 15.5477 21.8498 17.2507 21.9954 19.9137L11.2491 19.9138L11.2492 19.9145Z" fill="#464444"/>
<path d="M10.3798 10.6484H12.8372C13.132 10.6484 13.3709 10.4064 13.3709 10.1079C13.3709 9.80935 13.132 9.56738 12.8372 9.56738H10.3798C10.0851 9.56738 9.84619 9.80935 9.84619 10.1079C9.84619 10.4064 10.0851 10.6484 10.3798 10.6484Z" fill="#464444"/>
<path d="M17.821 16.488H13.8533C13.7124 16.488 13.5755 16.5455 13.4755 16.6458C13.3757 16.7467 13.3197 16.8861 13.3197 17.0281V17.7876C13.3197 18.0861 13.558 18.3283 13.8533 18.3283C14.1477 18.3283 14.3869 18.0859 14.3869 17.7876V17.5688H17.2873V17.7516C17.2873 18.0501 17.5257 18.2923 17.8209 18.2923C18.1153 18.2923 18.3546 18.0499 18.3546 17.7516V17.0281C18.3546 16.8835 18.2993 16.7482 18.1987 16.6464C18.0971 16.544 17.9634 16.488 17.821 16.488Z" fill="#464444"/>
</g>
<defs>
<clipPath id="clip0_505_3277">
<rect width="23" height="21" fill="white"/>
</clipPath>
</defs>
</svg>
