<svg width="21" height="21" viewBox="0 0 21 21" fill="none" xmlns="http://www.w3.org/2000/svg">
<rect width="21" height="21" rx="3" fill="#464444" fill-opacity="0.9"/>
<g clip-path="url(#clip0_505_2116)">
<path d="M9.81192 5.39307C10.073 4.79091 10.927 4.79091 11.1881 5.39307L12.0724 7.43224C12.2897 7.93347 12.7624 8.27689 13.3062 8.32871L15.5189 8.53955C16.1722 8.60181 16.4361 9.41396 15.9441 9.84838L14.278 11.3195C13.8685 11.6811 13.6879 12.2368 13.8067 12.77L14.2899 14.9395C14.4326 15.5801 13.7418 16.0821 13.1766 15.7484L11.2626 14.6184C10.7921 14.3407 10.2079 14.3407 9.73742 14.6184L7.82346 15.7484C7.25827 16.0821 6.56741 15.5801 6.7101 14.9395L7.19332 12.77C7.31209 12.2368 7.13155 11.6811 6.72201 11.3195L5.0559 9.84838C4.5639 9.41396 4.82779 8.60181 5.48117 8.53955L7.69378 8.32871C8.23764 8.27689 8.71032 7.93347 8.92767 7.43224L9.81192 5.39307Z" fill="white"/>
</g>
<defs>
<clipPath id="clip0_505_2116">
<rect width="12.6" height="12.6" fill="white" transform="translate(4.20001 4.20001)"/>
</clipPath>
</defs>
</svg>
