<svg width="22" height="22" viewBox="0 0 22 22" fill="none" xmlns="http://www.w3.org/2000/svg">
<path d="M16.6898 3.03448H15.9311V3.79311C15.9311 4.62761 15.2484 5.31035 14.4139 5.31035H7.58632C6.75181 5.31035 6.06908 4.62761 6.06908 3.79311V3.03448H5.31045C4.47595 3.03448 3.79321 3.71722 3.79321 4.55173V20.4828C3.79321 21.3172 4.47595 22 5.31045 22H16.6898C17.5242 22 18.207 21.3172 18.207 20.4828V4.55173C18.207 3.71722 17.5242 3.03448 16.6898 3.03448ZM15.9311 18.2069H6.06908V17.4483H15.9311V18.2069ZM15.9311 15.931H6.06908V15.1724H15.9311V15.931ZM15.9311 13.6552H6.06908V12.8966H15.9311V13.6552ZM15.9311 11.3793H6.06908V10.6207H15.9311V11.3793ZM15.9311 9.10345H6.06908V8.34483H15.9311V9.10345Z" fill="#492DB1" fill-opacity="0.9"/>
<path d="M16.6898 3.03448H15.9311V3.79311C15.9311 4.62761 15.2484 5.31035 14.4139 5.31035H7.58632C6.75181 5.31035 6.06908 4.62761 6.06908 3.79311V3.03448H5.31045C4.47595 3.03448 3.79321 3.71722 3.79321 4.55173V20.4828C3.79321 21.3172 4.47595 22 5.31045 22H16.6898C17.5242 22 18.207 21.3172 18.207 20.4828V4.55173C18.207 3.71722 17.5242 3.03448 16.6898 3.03448ZM15.9311 18.2069H6.06908V17.4483H15.9311V18.2069ZM15.9311 15.931H6.06908V15.1724H15.9311V15.931ZM15.9311 13.6552H6.06908V12.8966H15.9311V13.6552ZM15.9311 11.3793H6.06908V10.6207H15.9311V11.3793ZM15.9311 9.10345H6.06908V8.34483H15.9311V9.10345Z" fill="#E60D83" fill-opacity="0.5"/>
<path d="M7.58626 4.55172H14.4138C14.7931 4.55172 15.1725 4.24828 15.1725 3.7931V3.03448C15.1725 2.57931 14.869 2.27586 14.4138 2.27586H12.8966V1.51724C12.8966 0.682739 12.2138 0 11.3794 0H10.6207C9.78624 0 9.1035 0.682739 9.1035 1.51724V2.27586H7.58626C7.20697 2.27586 6.82764 2.57931 6.82764 3.03448V3.7931C6.82764 4.24828 7.13108 4.55172 7.58626 4.55172ZM11 1.51724C11.2276 1.51724 11.3793 1.66897 11.3793 1.89653C11.3793 2.1241 11.2276 2.27582 11 2.27582C10.7725 2.27582 10.6207 2.1241 10.6207 1.89653C10.6207 1.66897 10.7725 1.51724 11 1.51724Z" fill="#492DB1" fill-opacity="0.9"/>
<path d="M7.58626 4.55172H14.4138C14.7931 4.55172 15.1725 4.24828 15.1725 3.7931V3.03448C15.1725 2.57931 14.869 2.27586 14.4138 2.27586H12.8966V1.51724C12.8966 0.682739 12.2138 0 11.3794 0H10.6207C9.78624 0 9.1035 0.682739 9.1035 1.51724V2.27586H7.58626C7.20697 2.27586 6.82764 2.57931 6.82764 3.03448V3.7931C6.82764 4.24828 7.13108 4.55172 7.58626 4.55172ZM11 1.51724C11.2276 1.51724 11.3793 1.66897 11.3793 1.89653C11.3793 2.1241 11.2276 2.27582 11 2.27582C10.7725 2.27582 10.6207 2.1241 10.6207 1.89653C10.6207 1.66897 10.7725 1.51724 11 1.51724Z" fill="#E60D83" fill-opacity="0.5"/>
</svg>
