<svg width="22" height="22" viewBox="0 0 22 22" fill="none" xmlns="http://www.w3.org/2000/svg">
<path d="M12.375 9.625C12.749 9.999 12.936 10.4573 12.936 11C12.936 11.5427 12.749 12.001 12.375 12.375C12.001 12.749 11.5427 12.936 11 12.936C10.4573 12.936 9.999 12.749 9.625 12.375C9.251 12.001 9.064 11.5427 9.064 11C9.064 10.4573 9.251 9.999 9.625 9.625C9.999 9.251 10.4573 9.064 11 9.064C11.5427 9.064 12.001 9.251 12.375 9.625ZM22 11C22 12.012 21.868 12.9873 21.604 13.926C21.3399 14.8646 20.9697 15.7409 20.493 16.555C20.0163 17.369 19.4443 18.1097 18.777 18.777C18.1097 19.4443 17.369 20.0164 16.555 20.493C15.7409 20.9697 14.8647 21.34 13.9259 21.604C12.9873 21.868 12.012 22 11 22C9.988 22 9.01267 21.868 8.074 21.604C7.13533 21.3399 6.259 20.9697 5.445 20.493C4.631 20.0163 3.89033 19.4443 3.223 18.777C2.55567 18.1097 1.98367 17.369 1.507 16.555C1.03033 15.7409 0.66 14.8647 0.396 13.926C0.132 12.9873 0 12.012 0 11C0 9.988 0.132 9.01267 0.396 8.074C0.66 7.13533 1.03033 6.259 1.507 5.445C1.98367 4.631 2.55567 3.89033 3.223 3.223C3.89033 2.55567 4.631 1.98367 5.445 1.507C6.259 1.03033 7.13533 0.66 8.074 0.396C9.01267 0.132 9.988 0 11 0C12.5107 0 13.937 0.289667 15.279 0.869C16.621 1.44833 17.787 2.233 18.777 3.223C19.767 4.213 20.5517 5.379 21.131 6.721C21.7103 8.063 22 9.48933 22 11ZM17.578 10.274C17.578 10.186 17.545 10.109 17.479 10.043C17.413 9.977 17.336 9.944 17.2479 9.944L15.5759 9.768C15.5319 9.56267 15.4696 9.36833 15.3889 9.185C15.3082 9.00167 15.2166 8.81467 15.114 8.624L16.17 7.326C16.302 7.16467 16.2947 7.01067 16.148 6.864L15.136 5.852C15.0627 5.77867 14.9821 5.742 14.8941 5.742C14.8061 5.742 14.7328 5.77133 14.6741 5.83L13.3761 6.886C13.1854 6.78333 12.9984 6.69167 12.8152 6.611C12.6317 6.53033 12.4375 6.46796 12.2322 6.424L12.0562 4.752C12.0562 4.664 12.0232 4.587 11.9572 4.521C11.8912 4.455 11.8141 4.422 11.7262 4.422H10.2742C10.1862 4.422 10.1092 4.455 10.0432 4.521C9.97718 4.587 9.94418 4.664 9.94418 4.752L9.76818 6.424C9.56285 6.468 9.36851 6.53033 9.18518 6.611C9.00185 6.69167 8.81485 6.78333 8.62418 6.886L7.32614 5.83C7.26748 5.77133 7.19414 5.742 7.10614 5.742C7.01814 5.742 6.93748 5.77867 6.86414 5.852L5.85214 6.864C5.70548 7.01067 5.69814 7.16467 5.83014 7.326L6.88614 8.624C6.78348 8.81467 6.69181 9.00167 6.61114 9.185C6.53048 9.36833 6.46814 9.56267 6.42414 9.768L4.75214 9.944C4.66414 9.944 4.58714 9.977 4.52114 10.043C4.45514 10.109 4.42214 10.186 4.42214 10.274V11.726C4.42214 11.8139 4.45514 11.891 4.52114 11.957C4.58714 12.023 4.66414 12.056 4.75214 12.056L6.42414 12.232C6.46814 12.4374 6.53048 12.6316 6.61114 12.815C6.69181 12.9984 6.78348 13.1854 6.88614 13.376L5.83014 14.674C5.69814 14.8353 5.70548 14.9893 5.85214 15.136L6.86414 16.148C6.93748 16.2213 7.01814 16.258 7.10614 16.258C7.19414 16.258 7.26748 16.2287 7.32614 16.1701L8.62414 15.1141C8.81481 15.2167 9.00181 15.3083 9.18514 15.389C9.36848 15.4696 9.56281 15.532 9.76814 15.576L9.94414 17.248C9.94414 17.336 9.97714 17.413 10.0431 17.4791C10.1091 17.5451 10.1861 17.5781 10.2741 17.5781H11.7261C11.8141 17.5781 11.8911 17.5451 11.9571 17.4791C12.0231 17.413 12.0561 17.336 12.0561 17.248L12.2321 15.576C12.4375 15.532 12.6317 15.4696 12.8151 15.389C12.9985 15.3083 13.1855 15.2166 13.3761 15.114L14.6741 16.1701C14.7327 16.2287 14.8061 16.258 14.8941 16.258C14.9821 16.258 15.0626 16.2213 15.136 16.148L16.148 15.136C16.2946 14.9893 16.302 14.8354 16.17 14.674L15.114 13.376C15.2166 13.1853 15.3082 12.9983 15.3889 12.815C15.4695 12.6316 15.5319 12.4373 15.5759 12.232L17.2479 12.056C17.3359 12.056 17.413 12.023 17.479 11.957C17.545 11.891 17.578 11.814 17.578 11.726L17.578 10.274Z" fill="#492DB1" fill-opacity="0.9"/>
<path d="M12.375 9.625C12.749 9.999 12.936 10.4573 12.936 11C12.936 11.5427 12.749 12.001 12.375 12.375C12.001 12.749 11.5427 12.936 11 12.936C10.4573 12.936 9.999 12.749 9.625 12.375C9.251 12.001 9.064 11.5427 9.064 11C9.064 10.4573 9.251 9.999 9.625 9.625C9.999 9.251 10.4573 9.064 11 9.064C11.5427 9.064 12.001 9.251 12.375 9.625ZM22 11C22 12.012 21.868 12.9873 21.604 13.926C21.3399 14.8646 20.9697 15.7409 20.493 16.555C20.0163 17.369 19.4443 18.1097 18.777 18.777C18.1097 19.4443 17.369 20.0164 16.555 20.493C15.7409 20.9697 14.8647 21.34 13.9259 21.604C12.9873 21.868 12.012 22 11 22C9.988 22 9.01267 21.868 8.074 21.604C7.13533 21.3399 6.259 20.9697 5.445 20.493C4.631 20.0163 3.89033 19.4443 3.223 18.777C2.55567 18.1097 1.98367 17.369 1.507 16.555C1.03033 15.7409 0.66 14.8647 0.396 13.926C0.132 12.9873 0 12.012 0 11C0 9.988 0.132 9.01267 0.396 8.074C0.66 7.13533 1.03033 6.259 1.507 5.445C1.98367 4.631 2.55567 3.89033 3.223 3.223C3.89033 2.55567 4.631 1.98367 5.445 1.507C6.259 1.03033 7.13533 0.66 8.074 0.396C9.01267 0.132 9.988 0 11 0C12.5107 0 13.937 0.289667 15.279 0.869C16.621 1.44833 17.787 2.233 18.777 3.223C19.767 4.213 20.5517 5.379 21.131 6.721C21.7103 8.063 22 9.48933 22 11ZM17.578 10.274C17.578 10.186 17.545 10.109 17.479 10.043C17.413 9.977 17.336 9.944 17.2479 9.944L15.5759 9.768C15.5319 9.56267 15.4696 9.36833 15.3889 9.185C15.3082 9.00167 15.2166 8.81467 15.114 8.624L16.17 7.326C16.302 7.16467 16.2947 7.01067 16.148 6.864L15.136 5.852C15.0627 5.77867 14.9821 5.742 14.8941 5.742C14.8061 5.742 14.7328 5.77133 14.6741 5.83L13.3761 6.886C13.1854 6.78333 12.9984 6.69167 12.8152 6.611C12.6317 6.53033 12.4375 6.46796 12.2322 6.424L12.0562 4.752C12.0562 4.664 12.0232 4.587 11.9572 4.521C11.8912 4.455 11.8141 4.422 11.7262 4.422H10.2742C10.1862 4.422 10.1092 4.455 10.0432 4.521C9.97718 4.587 9.94418 4.664 9.94418 4.752L9.76818 6.424C9.56285 6.468 9.36851 6.53033 9.18518 6.611C9.00185 6.69167 8.81485 6.78333 8.62418 6.886L7.32614 5.83C7.26748 5.77133 7.19414 5.742 7.10614 5.742C7.01814 5.742 6.93748 5.77867 6.86414 5.852L5.85214 6.864C5.70548 7.01067 5.69814 7.16467 5.83014 7.326L6.88614 8.624C6.78348 8.81467 6.69181 9.00167 6.61114 9.185C6.53048 9.36833 6.46814 9.56267 6.42414 9.768L4.75214 9.944C4.66414 9.944 4.58714 9.977 4.52114 10.043C4.45514 10.109 4.42214 10.186 4.42214 10.274V11.726C4.42214 11.8139 4.45514 11.891 4.52114 11.957C4.58714 12.023 4.66414 12.056 4.75214 12.056L6.42414 12.232C6.46814 12.4374 6.53048 12.6316 6.61114 12.815C6.69181 12.9984 6.78348 13.1854 6.88614 13.376L5.83014 14.674C5.69814 14.8353 5.70548 14.9893 5.85214 15.136L6.86414 16.148C6.93748 16.2213 7.01814 16.258 7.10614 16.258C7.19414 16.258 7.26748 16.2287 7.32614 16.1701L8.62414 15.1141C8.81481 15.2167 9.00181 15.3083 9.18514 15.389C9.36848 15.4696 9.56281 15.532 9.76814 15.576L9.94414 17.248C9.94414 17.336 9.97714 17.413 10.0431 17.4791C10.1091 17.5451 10.1861 17.5781 10.2741 17.5781H11.7261C11.8141 17.5781 11.8911 17.5451 11.9571 17.4791C12.0231 17.413 12.0561 17.336 12.0561 17.248L12.2321 15.576C12.4375 15.532 12.6317 15.4696 12.8151 15.389C12.9985 15.3083 13.1855 15.2166 13.3761 15.114L14.6741 16.1701C14.7327 16.2287 14.8061 16.258 14.8941 16.258C14.9821 16.258 15.0626 16.2213 15.136 16.148L16.148 15.136C16.2946 14.9893 16.302 14.8354 16.17 14.674L15.114 13.376C15.2166 13.1853 15.3082 12.9983 15.3889 12.815C15.4695 12.6316 15.5319 12.4373 15.5759 12.232L17.2479 12.056C17.3359 12.056 17.413 12.023 17.479 11.957C17.545 11.891 17.578 11.814 17.578 11.726L17.578 10.274Z" fill="#E60D83" fill-opacity="0.5"/>
</svg>
