<svg width="22" height="22" viewBox="0 0 22 22" fill="none" xmlns="http://www.w3.org/2000/svg">
<path d="M14.9734 1.8326C18.0791 1.8326 20.1663 4.01243 20.1663 7.25651V14.7429C20.1663 17.987 18.0791 20.1659 14.9725 20.1659H7.02684C3.92026 20.1659 1.83301 17.987 1.83301 14.7429V7.25651C1.83301 4.01243 3.92026 1.8326 7.02684 1.8326H14.9734ZM8.10392 8.61501C6.78942 8.61501 5.71967 9.68476 5.71967 10.9993C5.71967 12.3147 6.78942 13.3844 8.10392 13.3844C9.17826 13.3844 10.0784 12.6658 10.3754 11.6868H12.3114V12.6969C12.3114 13.0764 12.6194 13.3844 12.9989 13.3844C13.3784 13.3844 13.6864 13.0764 13.6864 12.6969V11.6868H14.9056V12.6969C14.9056 13.0764 15.2136 13.3844 15.5931 13.3844C15.9726 13.3844 16.2806 13.0764 16.2806 12.6969V10.9993C16.2806 10.6198 15.9726 10.3118 15.5931 10.3118H10.3754C10.0784 9.33368 9.17826 8.61501 8.10392 8.61501ZM8.10402 9.98992C8.66043 9.98992 9.11418 10.4428 9.11418 11.0001C9.11418 11.5565 8.66043 12.0093 8.10402 12.0093C7.5476 12.0093 7.09385 11.5565 7.09385 11.0001C7.09385 10.4428 7.5476 9.98992 8.10402 9.98992Z" fill="#492DB1" fill-opacity="0.9"/>
<path d="M14.9734 1.8326C18.0791 1.8326 20.1663 4.01243 20.1663 7.25651V14.7429C20.1663 17.987 18.0791 20.1659 14.9725 20.1659H7.02684C3.92026 20.1659 1.83301 17.987 1.83301 14.7429V7.25651C1.83301 4.01243 3.92026 1.8326 7.02684 1.8326H14.9734ZM8.10392 8.61501C6.78942 8.61501 5.71967 9.68476 5.71967 10.9993C5.71967 12.3147 6.78942 13.3844 8.10392 13.3844C9.17826 13.3844 10.0784 12.6658 10.3754 11.6868H12.3114V12.6969C12.3114 13.0764 12.6194 13.3844 12.9989 13.3844C13.3784 13.3844 13.6864 13.0764 13.6864 12.6969V11.6868H14.9056V12.6969C14.9056 13.0764 15.2136 13.3844 15.5931 13.3844C15.9726 13.3844 16.2806 13.0764 16.2806 12.6969V10.9993C16.2806 10.6198 15.9726 10.3118 15.5931 10.3118H10.3754C10.0784 9.33368 9.17826 8.61501 8.10392 8.61501ZM8.10402 9.98992C8.66043 9.98992 9.11418 10.4428 9.11418 11.0001C9.11418 11.5565 8.66043 12.0093 8.10402 12.0093C7.5476 12.0093 7.09385 11.5565 7.09385 11.0001C7.09385 10.4428 7.5476 9.98992 8.10402 9.98992Z" fill="#E60D83" fill-opacity="0.5"/>
</svg>
