<svg width="22" height="22" viewBox="0 0 22 22" fill="none" xmlns="http://www.w3.org/2000/svg">
<g clip-path="url(#clip0_221_1102)">
<path d="M11 0C4.95 0 0 4.95 0 11C0 17.05 4.95 22 11 22C17.05 22 22 17.05 22 11C22 4.95 17.05 0 11 0ZM12.1 18.7H9.9V16.5H12.1V18.7ZM14.41 10.23L13.42 11.22C12.54 11.99 12.1 12.65 12.1 14.3H9.9V13.75C9.9 12.54 10.34 11.44 11.22 10.67L12.54 9.24C12.98 8.91 13.2 8.36 13.2 7.7C13.2 6.49 12.21 5.5 11 5.5C9.79 5.5 8.8 6.49 8.8 7.7H6.6C6.6 5.28 8.58 3.3 11 3.3C13.42 3.3 15.4 5.28 15.4 7.7C15.4 8.69 14.96 9.57 14.41 10.23Z" fill="#492DB1" fill-opacity="0.9"/>
<path d="M11 0C4.95 0 0 4.95 0 11C0 17.05 4.95 22 11 22C17.05 22 22 17.05 22 11C22 4.95 17.05 0 11 0ZM12.1 18.7H9.9V16.5H12.1V18.7ZM14.41 10.23L13.42 11.22C12.54 11.99 12.1 12.65 12.1 14.3H9.9V13.75C9.9 12.54 10.34 11.44 11.22 10.67L12.54 9.24C12.98 8.91 13.2 8.36 13.2 7.7C13.2 6.49 12.21 5.5 11 5.5C9.79 5.5 8.8 6.49 8.8 7.7H6.6C6.6 5.28 8.58 3.3 11 3.3C13.42 3.3 15.4 5.28 15.4 7.7C15.4 8.69 14.96 9.57 14.41 10.23Z" fill="#E60D83" fill-opacity="0.5"/>
</g>
<defs>
<clipPath id="clip0_221_1102">
<rect width="22" height="22" fill="white"/>
</clipPath>
</defs>
</svg>
