<svg width="276" height="227" viewBox="0 0 276 227" fill="none" xmlns="http://www.w3.org/2000/svg">
<path d="M68.8207 6.02888C70.3025 6.02888 71.5038 4.67927 71.5038 3.01444C71.5038 1.34961 70.3025 0 68.8207 0C67.3388 0 66.1375 1.34961 66.1375 3.01444C66.1375 4.67927 67.3388 6.02888 68.8207 6.02888Z" fill="#E6E6E6"/>
<path d="M82.4027 6.02888C83.8846 6.02888 85.0858 4.67927 85.0858 3.01444C85.0858 1.34961 83.8846 0 82.4027 0C80.9208 0 79.7195 1.34961 79.7195 3.01444C79.7195 4.67927 80.9208 6.02888 82.4027 6.02888Z" fill="#E6E6E6"/>
<path d="M95.9847 6.02888C97.4666 6.02888 98.6679 4.67927 98.6679 3.01444C98.6679 1.34961 97.4666 0 95.9847 0C94.5029 0 93.3016 1.34961 93.3016 3.01444C93.3016 4.67927 94.5029 6.02888 95.9847 6.02888Z" fill="#E6E6E6"/>
<path d="M109.567 6.02888C111.049 6.02888 112.25 4.67927 112.25 3.01444C112.25 1.34961 111.049 0 109.567 0C108.085 0 106.884 1.34961 106.884 3.01444C106.884 4.67927 108.085 6.02888 109.567 6.02888Z" fill="#E6E6E6"/>
<path d="M123.149 6.02888C124.631 6.02888 125.832 4.67927 125.832 3.01444C125.832 1.34961 124.631 0 123.149 0C121.667 0 120.466 1.34961 120.466 3.01444C120.466 4.67927 121.667 6.02888 123.149 6.02888Z" fill="#E6E6E6"/>
<path d="M68.8207 21.4794C70.3025 21.4794 71.5038 20.1298 71.5038 18.465C71.5038 16.8002 70.3025 15.4506 68.8207 15.4506C67.3388 15.4506 66.1375 16.8002 66.1375 18.465C66.1375 20.1298 67.3388 21.4794 68.8207 21.4794Z" fill="#E6E6E6"/>
<path d="M82.4027 21.4794C83.8846 21.4794 85.0858 20.1298 85.0858 18.465C85.0858 16.8002 83.8846 15.4506 82.4027 15.4506C80.9208 15.4506 79.7195 16.8002 79.7195 18.465C79.7195 20.1298 80.9208 21.4794 82.4027 21.4794Z" fill="#E6E6E6"/>
<path d="M95.9847 21.4794C97.4666 21.4794 98.6679 20.1298 98.6679 18.465C98.6679 16.8002 97.4666 15.4506 95.9847 15.4506C94.5029 15.4506 93.3016 16.8002 93.3016 18.465C93.3016 20.1298 94.5029 21.4794 95.9847 21.4794Z" fill="#E6E6E6"/>
<path d="M109.567 21.4794C111.049 21.4794 112.25 20.1298 112.25 18.465C112.25 16.8002 111.049 15.4506 109.567 15.4506C108.085 15.4506 106.884 16.8002 106.884 18.465C106.884 20.1298 108.085 21.4794 109.567 21.4794Z" fill="#6C63FF"/>
<path d="M109.567 21.4794C111.049 21.4794 112.25 20.1298 112.25 18.465C112.25 16.8002 111.049 15.4506 109.567 15.4506C108.085 15.4506 106.884 16.8002 106.884 18.465C106.884 20.1298 108.085 21.4794 109.567 21.4794Z" fill="#E60D83" fill-opacity="0.5"/>
<path d="M123.149 21.4794C124.631 21.4794 125.832 20.1298 125.832 18.465C125.832 16.8002 124.631 15.4506 123.149 15.4506C121.667 15.4506 120.466 16.8002 120.466 18.465C120.466 20.1298 121.667 21.4794 123.149 21.4794Z" fill="#E6E6E6"/>
<path d="M150.313 21.4794C151.795 21.4794 152.996 20.1298 152.996 18.465C152.996 16.8002 151.795 15.4506 150.313 15.4506C148.831 15.4506 147.63 16.8002 147.63 18.465C147.63 20.1298 148.831 21.4794 150.313 21.4794Z" fill="#E6E6E6"/>
<path d="M68.8207 36.93C70.3025 36.93 71.5038 35.5804 71.5038 33.9156C71.5038 32.2507 70.3025 30.9011 68.8207 30.9011C67.3388 30.9011 66.1375 32.2507 66.1375 33.9156C66.1375 35.5804 67.3388 36.93 68.8207 36.93Z" fill="#E6E6E6"/>
<path d="M82.4027 36.93C83.8846 36.93 85.0858 35.5804 85.0858 33.9156C85.0858 32.2507 83.8846 30.9011 82.4027 30.9011C80.9208 30.9011 79.7195 32.2507 79.7195 33.9156C79.7195 35.5804 80.9208 36.93 82.4027 36.93Z" fill="#E6E6E6"/>
<path d="M95.9847 36.93C97.4666 36.93 98.6679 35.5804 98.6679 33.9156C98.6679 32.2507 97.4666 30.9011 95.9847 30.9011C94.5029 30.9011 93.3016 32.2507 93.3016 33.9156C93.3016 35.5804 94.5029 36.93 95.9847 36.93Z" fill="#E6E6E6"/>
<path d="M109.567 36.93C111.049 36.93 112.25 35.5804 112.25 33.9156C112.25 32.2507 111.049 30.9011 109.567 30.9011C108.085 30.9011 106.884 32.2507 106.884 33.9156C106.884 35.5804 108.085 36.93 109.567 36.93Z" fill="#E6E6E6"/>
<path d="M123.149 36.93C124.631 36.93 125.832 35.5804 125.832 33.9156C125.832 32.2507 124.631 30.9011 123.149 30.9011C121.667 30.9011 120.466 32.2507 120.466 33.9156C120.466 35.5804 121.667 36.93 123.149 36.93Z" fill="#E6E6E6"/>
<path d="M68.8207 52.3806C70.3025 52.3806 71.5038 51.031 71.5038 49.3661C71.5038 47.7013 70.3025 46.3517 68.8207 46.3517C67.3388 46.3517 66.1375 47.7013 66.1375 49.3661C66.1375 51.031 67.3388 52.3806 68.8207 52.3806Z" fill="#E6E6E6"/>
<path d="M82.4027 52.3806C83.8846 52.3806 85.0858 51.031 85.0858 49.3661C85.0858 47.7013 83.8846 46.3517 82.4027 46.3517C80.9208 46.3517 79.7195 47.7013 79.7195 49.3661C79.7195 51.031 80.9208 52.3806 82.4027 52.3806Z" fill="#E6E6E6"/>
<path d="M95.9847 52.3806C97.4666 52.3806 98.6679 51.031 98.6679 49.3661C98.6679 47.7013 97.4666 46.3517 95.9847 46.3517C94.5029 46.3517 93.3016 47.7013 93.3016 49.3661C93.3016 51.031 94.5029 52.3806 95.9847 52.3806Z" fill="#E6E6E6"/>
<path d="M109.567 52.3806C111.049 52.3806 112.25 51.031 112.25 49.3661C112.25 47.7013 111.049 46.3517 109.567 46.3517C108.085 46.3517 106.884 47.7013 106.884 49.3661C106.884 51.031 108.085 52.3806 109.567 52.3806Z" fill="#E6E6E6"/>
<path d="M123.149 52.3806C124.631 52.3806 125.832 51.031 125.832 49.3661C125.832 47.7013 124.631 46.3517 123.149 46.3517C121.667 46.3517 120.466 47.7013 120.466 49.3661C120.466 51.031 121.667 52.3806 123.149 52.3806Z" fill="#E6E6E6"/>
<path d="M136.731 52.3806C138.213 52.3806 139.414 51.031 139.414 49.3661C139.414 47.7013 138.213 46.3517 136.731 46.3517C135.249 46.3517 134.048 47.7013 134.048 49.3661C134.048 51.031 135.249 52.3806 136.731 52.3806Z" fill="#E6E6E6"/>
<path d="M150.313 52.3806C151.795 52.3806 152.996 51.031 152.996 49.3661C152.996 47.7013 151.795 46.3517 150.313 46.3517C148.831 46.3517 147.63 47.7013 147.63 49.3661C147.63 51.031 148.831 52.3806 150.313 52.3806Z" fill="#E6E6E6"/>
<path d="M163.895 52.3806C165.377 52.3806 166.578 51.031 166.578 49.3661C166.578 47.7013 165.377 46.3517 163.895 46.3517C162.413 46.3517 161.212 47.7013 161.212 49.3661C161.212 51.031 162.413 52.3806 163.895 52.3806Z" fill="#E6E6E6"/>
<path d="M177.477 52.3806C178.959 52.3806 180.16 51.031 180.16 49.3661C180.16 47.7013 178.959 46.3517 177.477 46.3517C175.995 46.3517 174.794 47.7013 174.794 49.3661C174.794 51.031 175.995 52.3806 177.477 52.3806Z" fill="#E6E6E6"/>
<path d="M191.059 52.3806C192.541 52.3806 193.742 51.031 193.742 49.3661C193.742 47.7013 192.541 46.3517 191.059 46.3517C189.577 46.3517 188.376 47.7013 188.376 49.3661C188.376 51.031 189.577 52.3806 191.059 52.3806Z" fill="#E6E6E6"/>
<path d="M123.149 67.8312C124.631 67.8312 125.832 66.4816 125.832 64.8168C125.832 63.1519 124.631 61.8023 123.149 61.8023C121.667 61.8023 120.466 63.1519 120.466 64.8168C120.466 66.4816 121.667 67.8312 123.149 67.8312Z" fill="#E6E6E6"/>
<path d="M136.731 67.8312C138.213 67.8312 139.414 66.4816 139.414 64.8168C139.414 63.1519 138.213 61.8023 136.731 61.8023C135.249 61.8023 134.048 63.1519 134.048 64.8168C134.048 66.4816 135.249 67.8312 136.731 67.8312Z" fill="#6C63FF"/>
<path d="M136.731 67.8312C138.213 67.8312 139.414 66.4816 139.414 64.8168C139.414 63.1519 138.213 61.8023 136.731 61.8023C135.249 61.8023 134.048 63.1519 134.048 64.8168C134.048 66.4816 135.249 67.8312 136.731 67.8312Z" fill="#E60D83" fill-opacity="0.5"/>
<path d="M150.313 67.8312C151.795 67.8312 152.996 66.4816 152.996 64.8168C152.996 63.1519 151.795 61.8023 150.313 61.8023C148.831 61.8023 147.63 63.1519 147.63 64.8168C147.63 66.4816 148.831 67.8312 150.313 67.8312Z" fill="#E6E6E6"/>
<path d="M163.895 67.8312C165.377 67.8312 166.578 66.4816 166.578 64.8168C166.578 63.1519 165.377 61.8023 163.895 61.8023C162.413 61.8023 161.212 63.1519 161.212 64.8168C161.212 66.4816 162.413 67.8312 163.895 67.8312Z" fill="#E6E6E6"/>
<path d="M177.477 67.8312C178.959 67.8312 180.16 66.4816 180.16 64.8168C180.16 63.1519 178.959 61.8023 177.477 61.8023C175.995 61.8023 174.794 63.1519 174.794 64.8168C174.794 66.4816 175.995 67.8312 177.477 67.8312Z" fill="#E6E6E6"/>
<path d="M191.059 67.8312C192.541 67.8312 193.742 66.4816 193.742 64.8168C193.742 63.1519 192.541 61.8023 191.059 61.8023C189.577 61.8023 188.376 63.1519 188.376 64.8168C188.376 66.4816 189.577 67.8312 191.059 67.8312Z" fill="#E6E6E6"/>
<path d="M123.149 83.2818C124.631 83.2818 125.832 81.9321 125.832 80.2673C125.832 78.6025 124.631 77.2529 123.149 77.2529C121.667 77.2529 120.466 78.6025 120.466 80.2673C120.466 81.9321 121.667 83.2818 123.149 83.2818Z" fill="#E6E6E6"/>
<path d="M136.731 83.2818C138.213 83.2818 139.414 81.9321 139.414 80.2673C139.414 78.6025 138.213 77.2529 136.731 77.2529C135.249 77.2529 134.048 78.6025 134.048 80.2673C134.048 81.9321 135.249 83.2818 136.731 83.2818Z" fill="#E6E6E6"/>
<path d="M150.313 83.2818C151.795 83.2818 152.996 81.9321 152.996 80.2673C152.996 78.6025 151.795 77.2529 150.313 77.2529C148.831 77.2529 147.63 78.6025 147.63 80.2673C147.63 81.9321 148.831 83.2818 150.313 83.2818Z" fill="#E6E6E6"/>
<path d="M163.895 83.2818C165.377 83.2818 166.578 81.9321 166.578 80.2673C166.578 78.6025 165.377 77.2529 163.895 77.2529C162.413 77.2529 161.212 78.6025 161.212 80.2673C161.212 81.9321 162.413 83.2818 163.895 83.2818Z" fill="#E6E6E6"/>
<path d="M177.477 83.2818C178.959 83.2818 180.16 81.9321 180.16 80.2673C180.16 78.6025 178.959 77.2529 177.477 77.2529C175.995 77.2529 174.794 78.6025 174.794 80.2673C174.794 81.9321 175.995 83.2818 177.477 83.2818Z" fill="#E60D83" fill-opacity="0.5"/>
<path d="M177.477 83.2818C178.959 83.2818 180.16 81.9321 180.16 80.2673C180.16 78.6025 178.959 77.2529 177.477 77.2529C175.995 77.2529 174.794 78.6025 174.794 80.2673C174.794 81.9321 175.995 83.2818 177.477 83.2818Z" fill="#492DB1" fill-opacity="0.9"/>
<path d="M191.059 83.2818C192.541 83.2818 193.742 81.9321 193.742 80.2673C193.742 78.6025 192.541 77.2529 191.059 77.2529C189.577 77.2529 188.376 78.6025 188.376 80.2673C188.376 81.9321 189.577 83.2818 191.059 83.2818Z" fill="#E6E6E6"/>
<path d="M123.149 98.7324C124.631 98.7324 125.832 97.3828 125.832 95.7179C125.832 94.0531 124.631 92.7035 123.149 92.7035C121.667 92.7035 120.466 94.0531 120.466 95.7179C120.466 97.3828 121.667 98.7324 123.149 98.7324Z" fill="#E6E6E6"/>
<path d="M136.731 98.7324C138.213 98.7324 139.414 97.3828 139.414 95.7179C139.414 94.0531 138.213 92.7035 136.731 92.7035C135.249 92.7035 134.048 94.0531 134.048 95.7179C134.048 97.3828 135.249 98.7324 136.731 98.7324Z" fill="#E6E6E6"/>
<path d="M150.313 98.7324C151.795 98.7324 152.996 97.3828 152.996 95.7179C152.996 94.0531 151.795 92.7035 150.313 92.7035C148.831 92.7035 147.63 94.0531 147.63 95.7179C147.63 97.3828 148.831 98.7324 150.313 98.7324Z" fill="#E6E6E6"/>
<path d="M163.895 98.7324C165.377 98.7324 166.578 97.3828 166.578 95.7179C166.578 94.0531 165.377 92.7035 163.895 92.7035C162.413 92.7035 161.212 94.0531 161.212 95.7179C161.212 97.3828 162.413 98.7324 163.895 98.7324Z" fill="#E6E6E6"/>
<path d="M177.477 98.7324C178.959 98.7324 180.16 97.3828 180.16 95.7179C180.16 94.0531 178.959 92.7035 177.477 92.7035C175.995 92.7035 174.794 94.0531 174.794 95.7179C174.794 97.3828 175.995 98.7324 177.477 98.7324Z" fill="#E6E6E6"/>
<path d="M191.059 98.7324C192.541 98.7324 193.742 97.3828 193.742 95.7179C193.742 94.0531 192.541 92.7035 191.059 92.7035C189.577 92.7035 188.376 94.0531 188.376 95.7179C188.376 97.3828 189.577 98.7324 191.059 98.7324Z" fill="#E6E6E6"/>
<path d="M68.8207 114.183C70.3025 114.183 71.5038 112.833 71.5038 111.168C71.5038 109.504 70.3025 108.154 68.8207 108.154C67.3388 108.154 66.1375 109.504 66.1375 111.168C66.1375 112.833 67.3388 114.183 68.8207 114.183Z" fill="#E6E6E6"/>
<path d="M82.4027 114.183C83.8846 114.183 85.0858 112.833 85.0858 111.168C85.0858 109.504 83.8846 108.154 82.4027 108.154C80.9208 108.154 79.7195 109.504 79.7195 111.168C79.7195 112.833 80.9208 114.183 82.4027 114.183Z" fill="#E6E6E6"/>
<path d="M95.9847 114.183C97.4666 114.183 98.6679 112.833 98.6679 111.168C98.6679 109.504 97.4666 108.154 95.9847 108.154C94.5029 108.154 93.3016 109.504 93.3016 111.168C93.3016 112.833 94.5029 114.183 95.9847 114.183Z" fill="#E6E6E6"/>
<path d="M109.567 114.183C111.049 114.183 112.25 112.833 112.25 111.168C112.25 109.504 111.049 108.154 109.567 108.154C108.085 108.154 106.884 109.504 106.884 111.168C106.884 112.833 108.085 114.183 109.567 114.183Z" fill="#E6E6E6"/>
<path d="M123.149 114.183C124.631 114.183 125.832 112.833 125.832 111.168C125.832 109.504 124.631 108.154 123.149 108.154C121.667 108.154 120.466 109.504 120.466 111.168C120.466 112.833 121.667 114.183 123.149 114.183Z" fill="#E6E6E6"/>
<path d="M136.731 114.183C138.213 114.183 139.414 112.833 139.414 111.168C139.414 109.504 138.213 108.154 136.731 108.154C135.249 108.154 134.048 109.504 134.048 111.168C134.048 112.833 135.249 114.183 136.731 114.183Z" fill="#E6E6E6"/>
<path d="M150.313 114.183C151.795 114.183 152.996 112.833 152.996 111.168C152.996 109.504 151.795 108.154 150.313 108.154C148.831 108.154 147.63 109.504 147.63 111.168C147.63 112.833 148.831 114.183 150.313 114.183Z" fill="#E6E6E6"/>
<path d="M163.895 114.183C165.377 114.183 166.578 112.833 166.578 111.168C166.578 109.504 165.377 108.154 163.895 108.154C162.413 108.154 161.212 109.504 161.212 111.168C161.212 112.833 162.413 114.183 163.895 114.183Z" fill="#E6E6E6"/>
<path d="M177.477 114.183C178.959 114.183 180.16 112.833 180.16 111.168C180.16 109.504 178.959 108.154 177.477 108.154C175.995 108.154 174.794 109.504 174.794 111.168C174.794 112.833 175.995 114.183 177.477 114.183Z" fill="#E6E6E6"/>
<path d="M191.059 114.183C192.541 114.183 193.742 112.833 193.742 111.168C193.742 109.504 192.541 108.154 191.059 108.154C189.577 108.154 188.376 109.504 188.376 111.168C188.376 112.833 189.577 114.183 191.059 114.183Z" fill="#E6E6E6"/>
<path d="M68.8191 129.633C70.301 129.633 71.5022 128.283 71.5022 126.619C71.5022 124.954 70.301 123.604 68.8191 123.604C67.3372 123.604 66.136 124.954 66.136 126.619C66.136 128.283 67.3372 129.633 68.8191 129.633Z" fill="#E6E6E6"/>
<path d="M82.4027 129.634C83.8846 129.634 85.0858 128.284 85.0858 126.619C85.0858 124.954 83.8846 123.605 82.4027 123.605C80.9208 123.605 79.7195 124.954 79.7195 126.619C79.7195 128.284 80.9208 129.634 82.4027 129.634Z" fill="#E6E6E6"/>
<path d="M68.8191 145.084C70.3009 145.084 71.5022 143.734 71.5022 142.069C71.5022 140.404 70.3009 139.055 68.8191 139.055C67.3372 139.055 66.1359 140.404 66.1359 142.069C66.1359 143.734 67.3372 145.084 68.8191 145.084Z" fill="#E6E6E6"/>
<path d="M82.4027 145.084C83.8846 145.084 85.0858 143.734 85.0858 142.07C85.0858 140.405 83.8846 139.055 82.4027 139.055C80.9208 139.055 79.7195 140.405 79.7195 142.07C79.7195 143.734 80.9208 145.084 82.4027 145.084Z" fill="#E6E6E6"/>
<path d="M109.567 145.084C111.049 145.084 112.25 143.734 112.25 142.07C112.25 140.405 111.049 139.055 109.567 139.055C108.085 139.055 106.884 140.405 106.884 142.07C106.884 143.734 108.085 145.084 109.567 145.084Z" fill="#E6E6E6"/>
<path d="M244.948 35.5644H138.62C138.098 35.5637 137.598 35.3304 137.229 34.9157C136.859 34.501 136.652 33.9387 136.651 33.3522V3.72015C136.652 3.13366 136.859 2.57139 137.229 2.15668C137.598 1.74197 138.098 1.50868 138.62 1.508H244.948C245.47 1.50868 245.971 1.74197 246.34 2.15668C246.709 2.57139 246.917 3.13366 246.917 3.72015V33.3523C246.917 33.9388 246.709 34.501 246.34 34.9157C245.971 35.3304 245.47 35.5637 244.948 35.5644ZM138.62 2.39286C138.307 2.39324 138.007 2.53321 137.785 2.78204C137.564 3.03087 137.439 3.36825 137.439 3.72015V33.3523C137.439 33.7042 137.564 34.0415 137.785 34.2904C138.007 34.5392 138.307 34.6792 138.62 34.6796H244.948C245.262 34.6792 245.562 34.5392 245.783 34.2904C246.005 34.0415 246.13 33.7042 246.13 33.3523V3.72015C246.13 3.36825 246.005 3.03087 245.783 2.78204C245.562 2.53321 245.262 2.39324 244.948 2.39286H138.62Z" fill="#E6E6E6"/>
<path d="M152.404 27.8271C156.971 27.8271 160.673 23.6674 160.673 18.5361C160.673 13.4047 156.971 9.245 152.404 9.245C147.836 9.245 144.134 13.4047 144.134 18.5361C144.134 23.6674 147.836 27.8271 152.404 27.8271Z" fill="#6C63FF"/>
<path d="M152.404 27.8271C156.971 27.8271 160.673 23.6674 160.673 18.5361C160.673 13.4047 156.971 9.245 152.404 9.245C147.836 9.245 144.134 13.4047 144.134 18.5361C144.134 23.6674 147.836 27.8271 152.404 27.8271Z" fill="#E60D83" fill-opacity="0.5"/>
<path d="M171.503 12.342C171.138 12.342 170.787 12.5052 170.529 12.7956C170.27 13.086 170.125 13.4799 170.125 13.8906C170.125 14.3012 170.27 14.6951 170.529 14.9855C170.787 15.2759 171.138 15.4391 171.503 15.4391H208.127C208.493 15.4391 208.843 15.2759 209.102 14.9855C209.36 14.6951 209.506 14.3012 209.506 13.8906C209.506 13.4799 209.36 13.086 209.102 12.7956C208.843 12.5052 208.493 12.342 208.127 12.342H171.503Z" fill="#E6E6E6"/>
<path d="M171.503 21.6331C171.138 21.6331 170.787 21.7962 170.529 22.0866C170.27 22.377 170.125 22.7709 170.125 23.1816C170.125 23.5923 170.27 23.9861 170.529 24.2765C170.787 24.5669 171.138 24.7301 171.503 24.7301H236.481C236.847 24.7301 237.198 24.5669 237.456 24.2765C237.715 23.9861 237.86 23.5923 237.86 23.1816C237.86 22.7709 237.715 22.377 237.456 22.0866C237.198 21.7962 236.847 21.6331 236.481 21.6331H171.503Z" fill="#E6E6E6"/>
<path d="M108.297 95.7351H1.96904C1.447 95.7344 0.946529 95.5011 0.577395 95.0864C0.208262 94.6717 0.000611791 94.1095 0 93.523V63.8909C0.000611791 63.3044 0.208262 62.7421 0.577395 62.3274C0.946529 61.9127 1.447 61.6794 1.96904 61.6787H108.297C108.819 61.6794 109.32 61.9127 109.689 62.3274C110.058 62.7421 110.266 63.3044 110.266 63.8909V93.523C110.266 94.1095 110.058 94.6717 109.689 95.0864C109.32 95.5012 108.819 95.7344 108.297 95.7351ZM1.96904 62.5636C1.65581 62.564 1.35551 62.7039 1.13402 62.9528C0.912538 63.2016 0.787957 63.539 0.787615 63.8909V93.523C0.787957 93.8749 0.912538 94.2123 1.13402 94.4611C1.35551 94.7099 1.65581 94.8499 1.96904 94.8503H108.297C108.61 94.8499 108.911 94.7099 109.132 94.4611C109.354 94.2123 109.478 93.8749 109.479 93.523V63.8909C109.478 63.539 109.354 63.2016 109.132 62.9528C108.911 62.7039 108.61 62.564 108.297 62.5636H1.96904Z" fill="#E6E6E6"/>
<path d="M15.7523 87.9978C20.3197 87.9978 24.0223 83.8381 24.0223 78.7068C24.0223 73.5755 20.3197 69.4157 15.7523 69.4157C11.1849 69.4157 7.48236 73.5755 7.48236 78.7068C7.48236 83.8381 11.1849 87.9978 15.7523 87.9978Z" fill="#492DB1" fill-opacity="0.9"/>
<path d="M15.7523 87.9978C20.3197 87.9978 24.0223 83.8381 24.0223 78.7068C24.0223 73.5755 20.3197 69.4157 15.7523 69.4157C11.1849 69.4157 7.48236 73.5755 7.48236 78.7068C7.48236 83.8381 11.1849 87.9978 15.7523 87.9978Z" fill="#E60D83" fill-opacity="0.5"/>
<path d="M34.852 72.5127C34.4864 72.5127 34.1358 72.6759 33.8773 72.9663C33.6188 73.2567 33.4736 73.6505 33.4736 74.0612C33.4736 74.4719 33.6188 74.8658 33.8773 75.1562C34.1358 75.4466 34.4864 75.6097 34.852 75.6097H73.0513C73.4168 75.6097 73.7674 75.4466 74.0259 75.1562C74.2844 74.8658 74.4296 74.4719 74.4296 74.0612C74.4296 73.6505 74.2844 73.2567 74.0259 72.9663C73.7674 72.6759 73.4168 72.5127 73.0513 72.5127H34.852Z" fill="#E6E6E6"/>
<path d="M34.852 81.8038C34.4864 81.8038 34.1358 81.9669 33.8773 82.2573C33.6188 82.5477 33.4736 82.9416 33.4736 83.3523C33.4736 83.763 33.6188 84.1568 33.8773 84.4472C34.1358 84.7377 34.4864 84.9008 34.852 84.9008H99.8302C100.196 84.9008 100.546 84.7377 100.805 84.4472C101.063 84.1568 101.209 83.763 101.209 83.3523C101.209 82.9416 101.063 82.5477 100.805 82.2573C100.546 81.9669 100.196 81.8038 99.8302 81.8038H34.852Z" fill="#E6E6E6"/>
<path d="M204.386 160.773H98.058C97.536 160.772 97.0355 160.539 96.6664 160.124C96.2973 159.709 96.0896 159.147 96.089 158.56V128.928C96.0896 128.342 96.2973 127.78 96.6664 127.365C97.0355 126.95 97.536 126.717 98.058 126.716H204.386C204.908 126.717 205.409 126.95 205.778 127.365C206.147 127.78 206.355 128.342 206.355 128.928V158.56C206.355 159.147 206.147 159.709 205.778 160.124C205.409 160.539 204.908 160.772 204.386 160.773ZM98.058 127.601C97.7448 127.601 97.4445 127.741 97.223 127.99C97.0015 128.239 96.8769 128.576 96.8766 128.928V158.56C96.8769 158.912 97.0015 159.25 97.223 159.499C97.4445 159.747 97.7448 159.887 98.058 159.888H204.386C204.699 159.887 205 159.747 205.221 159.499C205.443 159.25 205.567 158.912 205.568 158.56V128.928C205.567 128.576 205.443 128.239 205.221 127.99C205 127.741 204.699 127.601 204.386 127.601H98.058Z" fill="#3F3D56"/>
<path d="M111.841 153.035C116.409 153.035 120.111 148.876 120.111 143.744C120.111 138.613 116.409 134.453 111.841 134.453C107.274 134.453 103.571 138.613 103.571 143.744C103.571 148.876 107.274 153.035 111.841 153.035Z" fill="#E60D83" fill-opacity="0.5"/>
<path d="M111.841 153.035C116.409 153.035 120.111 148.876 120.111 143.744C120.111 138.613 116.409 134.453 111.841 134.453C107.274 134.453 103.571 138.613 103.571 143.744C103.571 148.876 107.274 153.035 111.841 153.035Z" fill="#492DB1" fill-opacity="0.5"/>
<path d="M130.941 137.55C130.575 137.55 130.225 137.713 129.966 138.004C129.708 138.294 129.563 138.688 129.563 139.099C129.563 139.509 129.708 139.903 129.966 140.194C130.225 140.484 130.575 140.647 130.941 140.647H165.99C166.355 140.647 166.706 140.484 166.964 140.194C167.223 139.903 167.368 139.509 167.368 139.099C167.368 138.688 167.223 138.294 166.964 138.004C166.706 137.713 166.355 137.55 165.99 137.55H130.941Z" fill="#E6E6E6"/>
<path d="M130.941 146.841C130.575 146.841 130.225 147.004 129.966 147.295C129.708 147.585 129.563 147.979 129.563 148.39C129.563 148.8 129.708 149.194 129.966 149.485C130.225 149.775 130.575 149.938 130.941 149.938H195.919C196.285 149.938 196.635 149.775 196.894 149.485C197.152 149.194 197.298 148.8 197.298 148.39C197.298 147.979 197.152 147.585 196.894 147.295C196.635 147.004 196.285 146.841 195.919 146.841H130.941Z" fill="#E6E6E6"/>
<path d="M261.586 153.258C256.969 168.821 238.078 152.314 238.078 152.314L243.116 93.3614C250.672 86.7587 258.648 92.4182 258.648 92.4182L261.586 153.258Z" fill="#E6E6E6"/>
<path d="M260.595 205.491L267.031 205.567L265.423 226.412L260.595 226.413L260.595 205.491Z" fill="#FFB8B8"/>
<path d="M243.145 205.491L236.019 205.49L238.316 226.412L243.144 226.413L243.145 205.491Z" fill="#FFB8B8"/>
<path d="M260.16 222.801L251.728 167.576L243.915 222.09L235.999 222.584L233.888 149.544L234.047 149.504C235.356 149.175 266.157 141.575 271.206 152.448L271.232 152.503L267.018 223.05L260.16 222.801Z" fill="#2F2E41"/>
<path d="M251.223 86.4528C256.565 86.4528 260.895 81.5876 260.895 75.5862C260.895 69.5847 256.565 64.7196 251.223 64.7196C245.881 64.7196 241.551 69.5847 241.551 75.5862C241.551 81.5876 245.881 86.4528 251.223 86.4528Z" fill="#FFB8B8"/>
<path d="M259.349 157.915C258.215 157.562 257.398 156.099 256.778 153.311C256.671 152.83 246.628 104.771 255.121 96.0642L257.079 89.955L259.757 91.9615C260.705 91.9715 270.398 92.2471 271.227 99.2275C272.038 106.06 274.246 151.838 272.026 154.686C271.983 154.749 271.928 154.8 271.865 154.836C271.801 154.872 271.732 154.891 271.661 154.894C269.412 154.894 268.73 152.09 268.569 151.197C268.035 151.445 266.442 152.36 263.825 155.3C262.203 157.122 260.932 157.995 259.882 157.995C259.702 157.995 259.522 157.968 259.349 157.915Z" fill="#2F2E41"/>
<path d="M238.359 155.3C235.74 152.359 234.148 151.445 233.614 151.197C233.453 152.09 232.771 154.894 230.522 154.894C230.451 154.891 230.382 154.872 230.319 154.836C230.256 154.8 230.2 154.749 230.157 154.686C227.938 151.839 230.145 106.06 230.956 99.2275C231.785 92.2471 241.478 91.9715 242.426 91.9615L245.105 89.955L247.062 96.0642C255.554 104.771 245.513 152.83 245.406 153.311C244.785 156.099 243.968 157.562 242.834 157.915C242.661 157.968 242.482 157.995 242.302 157.995C241.251 157.995 239.98 157.122 238.359 155.3Z" fill="#2F2E41"/>
<path d="M259.209 81.7933C260.845 80.471 262.084 78.6203 262.761 76.4875C263.438 74.3546 263.522 72.0407 263 69.8535C262.478 67.6662 261.376 65.7093 259.84 64.243C258.304 62.7767 256.407 61.8705 254.401 61.645C253.511 61.5448 252.552 61.5597 251.814 60.9916C251.158 60.4869 250.804 59.6115 250.202 59.0292C249.819 58.6964 249.379 58.4561 248.91 58.3231C248.44 58.1902 247.952 58.1676 247.474 58.2567C246.521 58.4413 245.597 58.7823 244.732 59.2688C242.588 60.343 240.308 61.6652 239.332 64.0647C238.486 66.1432 238.859 68.7061 240.056 70.5539C241.314 72.3827 243.149 73.5997 245.182 73.9543C247.203 74.2935 249.267 74.0847 251.201 73.3454C252.478 72.8941 253.738 72.2791 255.076 72.2289C256.12 72.1897 257.15 72.5003 258.037 73.121C258.923 73.7418 259.625 74.6448 260.054 75.715C260.482 76.7853 260.617 77.9746 260.442 79.1315C260.267 80.2884 259.79 81.3607 259.071 82.212" fill="#2F2E41"/>
<path d="M206.49 146.437C207.048 146.422 207.598 146.284 208.109 146.031C208.62 145.777 209.082 145.413 209.468 144.959C209.853 144.505 210.156 143.97 210.357 143.385C210.559 142.8 210.656 142.176 210.643 141.548L216.284 130.857L211.926 126.368L205.984 136.902C204.888 137.021 203.875 137.612 203.159 138.552C202.443 139.492 202.08 140.708 202.145 141.943C202.21 143.178 202.7 144.337 203.51 145.175C204.32 146.013 205.388 146.465 206.49 146.437Z" fill="#FFB8B8"/>
<path d="M271.93 158.15C272.398 157.807 272.801 157.364 273.116 156.846C273.432 156.329 273.654 155.746 273.769 155.132C273.884 154.518 273.89 153.884 273.788 153.268C273.685 152.651 273.475 152.063 273.17 151.537L272.954 139.111L267.145 137.873L267.031 150.343C266.155 151.092 265.571 152.194 265.403 153.417C265.235 154.64 265.496 155.889 266.13 156.9C266.765 157.911 267.724 158.607 268.805 158.84C269.887 159.073 271.007 158.826 271.93 158.15Z" fill="#FFB8B8"/>
<path d="M208.206 129.245L208.14 129.127L208.205 129.01C216.665 113.746 234.424 94.68 234.603 94.489L234.659 94.429L236.852 94.4037L239.223 101.04C238.485 102.636 218.59 133.829 215.962 135.898C215.753 136.06 215.516 136.172 215.266 136.225C215.016 136.278 214.759 136.271 214.511 136.205C214.074 136.091 213.657 135.892 213.281 135.616C210.857 133.929 208.33 129.466 208.206 129.245Z" fill="#2F2E41"/>
<path d="M266.04 146.662C265.804 146.572 265.588 146.427 265.404 146.238C265.221 146.049 265.074 145.819 264.974 145.563C263.707 142.242 269.136 100.301 269.368 98.5172L269.411 98.1797L271.247 99.4863L271.265 99.5753C271.319 99.8432 276.665 126.562 275.216 144.317L275.205 144.444L275.103 144.497C274.882 144.612 270.429 146.91 267.461 146.91C266.978 146.924 266.496 146.84 266.04 146.662Z" fill="#2F2E41"/>
</svg>
