<svg width="22" height="20" viewBox="0 0 22 20" fill="none" xmlns="http://www.w3.org/2000/svg">
<path d="M17.6462 16.7248C16.1246 14.9175 13.7138 13.75 11 13.75C8.28623 13.75 5.87543 14.9175 4.35385 16.7248M17.6462 16.7248C19.7039 15.0763 21 12.6744 21 10C21 5.02944 16.5228 1 11 1C5.47715 1 1 5.02944 1 10C1 12.6744 2.29611 15.0763 4.35385 16.7248M17.6462 16.7248C15.8794 18.1401 13.5513 19 11 19C8.44871 19 6.12056 18.1401 4.35385 16.7248M14.3333 7.75C14.3333 9.40685 12.8409 10.75 11 10.75C9.15905 10.75 7.66667 9.40685 7.66667 7.75C7.66667 6.09315 9.15905 4.75 11 4.75C12.8409 4.75 14.3333 6.09315 14.3333 7.75Z" stroke="#492DB1" stroke-opacity="0.9" stroke-width="1.5" stroke-linecap="round" stroke-linejoin="round"/>
<path d="M17.6462 16.7248C16.1246 14.9175 13.7138 13.75 11 13.75C8.28623 13.75 5.87543 14.9175 4.35385 16.7248M17.6462 16.7248C19.7039 15.0763 21 12.6744 21 10C21 5.02944 16.5228 1 11 1C5.47715 1 1 5.02944 1 10C1 12.6744 2.29611 15.0763 4.35385 16.7248M17.6462 16.7248C15.8794 18.1401 13.5513 19 11 19C8.44871 19 6.12056 18.1401 4.35385 16.7248M14.3333 7.75C14.3333 9.40685 12.8409 10.75 11 10.75C9.15905 10.75 7.66667 9.40685 7.66667 7.75C7.66667 6.09315 9.15905 4.75 11 4.75C12.8409 4.75 14.3333 6.09315 14.3333 7.75Z" stroke="#E60D83" stroke-opacity="0.5" stroke-width="1.5" stroke-linecap="round" stroke-linejoin="round"/>
</svg>
