<svg width="15" height="15" viewBox="0 0 15 15" fill="none" xmlns="http://www.w3.org/2000/svg">
<rect width="15" height="15" rx="3" fill="#492DB1" fill-opacity="0.9"/>
<rect width="15" height="15" rx="3" fill="#E60D83" fill-opacity="0.5"/>
<g clip-path="url(#clip0_222_831)">
<path d="M6.81187 4.30555C7.07299 3.70339 7.92694 3.70339 8.18806 4.30555L8.52241 5.07659C8.73976 5.57782 9.21244 5.92124 9.7563 5.97307L10.5929 6.05279C11.2463 6.11505 11.5102 6.9272 11.0182 7.36161L10.3882 7.91786C9.97867 8.27946 9.79812 8.83513 9.9169 9.36839L10.0996 10.1887C10.2423 10.8293 9.55144 11.3313 8.98625 10.9976L8.26255 10.5703C7.7921 10.2926 7.20783 10.2926 6.73738 10.5703L6.01368 10.9976C5.44849 11.3313 4.75763 10.8293 4.90032 10.1887L5.08303 9.36839C5.20181 8.83513 5.02126 8.27946 4.61173 7.91786L3.98175 7.36161C3.48975 6.9272 3.75363 6.11505 4.40701 6.05279L5.24363 5.97307C5.7875 5.92124 6.26017 5.57782 6.47752 5.07659L6.81187 4.30555Z" fill="white"/>
</g>
<defs>
<clipPath id="clip0_222_831">
<rect width="9" height="9" fill="white" transform="translate(3 3)"/>
</clipPath>
</defs>
</svg>
